<?xml version="1.0" standalone="no"?>
<svg xmlns="http://www.w3.org/2000/svg" viewBox="0 0 132 68" width="132" height="68">
    <g fill="#6a8bff" color="#6a8bff" transform="translate(48.452 0) scale(0.35) ">
        <svg width="100.0" height="100.0" x="0.0" y="0.0" viewBox="0 0 100 100">
            <path d="M72,22.983c0-3.072-2.5-5.571-5.571-5.571c-0.998,0-1.952,0.26-2.79,0.748l-0.001-3.24c0.01-0.136,0.014-0.253,0.014-0.366  c0-3.072-2.5-5.571-5.571-5.571c-0.998,0-1.953,0.261-2.792,0.75c-0.321-2.768-2.681-4.924-5.534-4.924  c-2.857,0-5.219,2.162-5.535,4.936c-0.844-0.497-1.807-0.762-2.814-0.762c-3.071,0-5.571,2.499-5.571,5.571v17.494  c-1.401-1.179-3.189-1.849-5.047-1.849c-1.82,0-3.301,1.481-3.301,3.301v24.893c0,6.611,2.889,12.555,7.464,16.641  c0.058,0.076,0.124,0.147,0.198,0.212c0.226,0.197,0.456,0.388,0.688,0.575l-0.002,19.151c0,0.548,0.6,0.997,1.346,1.017  l0.074,0.001c0.015,0,0.03-0.001,0.045-0.001h0.005c0.747-0.019,1.347-0.469,1.347-1.017L38.63,77.739  c1.121,0.65,2.297,1.204,3.525,1.65c0.162,0.059,0.328,0.087,0.491,0.087c0.586,0,1.136-0.362,1.348-0.944  c0.271-0.744-0.113-1.567-0.858-1.839c-0.427-0.155-0.846-0.33-1.259-0.514c0.004-0.013,0.006-0.02,0.006-0.02  s-0.05-0.012-0.135-0.038c-1.705-0.775-3.286-1.79-4.711-3.036c-0.09-0.079-0.188-0.141-0.291-0.192  c-3.966-3.573-6.47-8.746-6.47-14.501l0-20.269l0.004-4.624c0-0.28,0.228-0.507,0.508-0.507c2.783,0,5.047,2.264,5.047,5.047v10.848  c0,0.77,0.626,1.397,1.396,1.397c0,0,0.001,0,0.001,0c6.205,0,11.252,5.048,11.252,11.253c0,0.77,0.627,1.396,1.397,1.396  s1.396-0.627,1.396-1.396c0-7.261-5.503-13.273-12.649-13.978V14.554c0-1.532,1.246-2.778,2.777-2.778  c1.532,0,2.778,1.246,2.778,2.778c0,0.097-0.005,0.195-0.02,0.333L44.16,39.761c0,0.763,0.614,1.385,1.374,1.397l0.044,0.004  l0.027-0.004c0.764-0.008,1.383-0.631,1.383-1.397l0-29.109l-0.003-0.078c-0.004-0.064-0.008-0.129-0.008-0.195  c0-1.531,1.246-2.777,2.778-2.777s2.777,1.246,2.777,2.777c0,0.068-0.004,0.135-0.009,0.212l-0.003,0.03l0.002,3.573  c-0.008,0.119-0.013,0.239-0.013,0.36c0,0.111,0.004,0.227,0.011,0.316v24.891c0,0.771,0.627,1.397,1.397,1.397  s1.396-0.626,1.396-1.397V14.314c0.122-1.425,1.333-2.538,2.767-2.538c1.531,0,2.777,1.246,2.777,2.778  c0,0.066-0.003,0.131-0.01,0.211l-0.002,27.329c0,0.753,0.6,1.37,1.347,1.396l0.073,0.001c0.016,0,0.03,0,0.045,0l0.005,0  c0.747-0.026,1.348-0.643,1.348-1.396l-0.001-18.846l-0.003-0.065c-0.004-0.066-0.008-0.132-0.008-0.2  c0-1.532,1.245-2.778,2.777-2.778c1.531,0,2.777,1.246,2.777,2.778c0,0.067-0.003,0.134-0.01,0.211l0.001,35.198  c0,5.532-2.316,10.525-6.02,14.079c-0.109,0.057-0.214,0.124-0.308,0.211c-1.901,1.771-4.097,3.117-6.522,4.003  c-0.744,0.271-1.127,1.096-0.854,1.84c0.212,0.581,0.762,0.942,1.347,0.942c0.164,0,0.33-0.028,0.492-0.088  c1.227-0.447,2.398-1.004,3.516-1.653l-0.002,17.245c0,0.548,0.6,0.997,1.347,1.017l0.073,0.001c0.016,0,0.03-0.001,0.045-0.001  h0.005c0.747-0.019,1.348-0.469,1.348-1.017l-0.025-19.168c0.404-0.327,0.803-0.663,1.187-1.021  c0.035-0.033,0.062-0.071,0.094-0.105c4.347-4.072,7.07-9.864,7.07-16.285l-0.001-35.045C71.995,23.212,72,23.096,72,22.983z">
            </path>
        </svg>
    </g>
<line x1="49.501999999999995" y1="41" x2="82.40199999999999" y2="41" stroke="#5e24c3" stroke-linecap="round">
</line>
<path fill="#5e24c3" fill-rule="nonzero" d="M6.60 5.90L3.26 5.90L3.24 12.72Q3.24 14.47 4.66 14.47L4.66 14.47Q5.45 14.47 6.22 14.06L6.22 14.06L6.79 14.95Q5.62 15.77 4.32 15.77L4.32 15.77Q3.05 15.77 2.35 14.98Q1.66 14.18 1.66 12.77L1.66 12.77L1.66 5.90L0 5.90L0 4.58L1.68 4.58L1.68 2.21L3.26 1.39L3.26 4.58L6.60 4.58L6.60 5.90ZM18.84 8.98L18.84 15.48L17.26 15.48L17.26 9.10Q17.26 5.69 14.23 5.69L14.23 5.69Q13.42 5.69 12.55 6.11Q11.69 6.53 11.28 7.13L11.28 7.13L11.28 15.48L9.67 15.48L9.67 0.84L11.28 0L11.28 5.74Q12.77 4.30 14.74 4.30L14.74 4.30Q18.84 4.30 18.84 8.98L18.84 8.98ZM31.32 10.06L31.32 10.58L23.54 10.58Q23.64 12.34 24.76 13.39Q25.87 14.45 27.65 14.45L27.65 14.45Q29.14 14.45 30.55 13.56L30.55 13.56L31.10 14.52Q29.52 15.77 27.29 15.77L27.29 15.77Q24.70 15.77 23.16 14.06L23.16 14.06Q21.74 12.53 21.74 10.08L21.74 10.08Q21.74 7.54 23.26 5.83L23.26 5.83Q24.62 4.30 26.64 4.30L26.64 4.30Q29.06 4.30 30.34 6.26L30.34 6.26Q31.32 7.80 31.32 10.06L31.32 10.06ZM23.52 9.29L23.52 9.29L29.66 9.29Q29.59 7.54 28.81 6.55Q28.03 5.57 26.66 5.57L26.66 5.57Q25.37 5.57 24.49 6.60Q23.62 7.63 23.52 9.29ZM47.21 5.52L47.21 5.52L45.89 6.43Q45.07 5.71 44.14 5.71L44.14 5.71Q42.77 5.71 41.71 7.13L41.71 7.13L41.71 15.48L40.10 15.48L40.10 4.58L41.47 4.58L41.62 5.74L41.66 5.74Q43.08 4.30 44.57 4.30L44.57 4.30Q46.32 4.30 47.21 5.52ZM49.39 4.58L50.98 4.58L50.98 15.48L49.39 15.48L49.39 4.58ZM49.15 1.03L49.15 1.03Q49.15 0.62 49.46 0.31Q49.78 0 50.21 0L50.21 0Q50.64 0 50.95 0.31Q51.26 0.62 51.26 1.03L51.26 1.03Q51.26 1.49 50.95 1.79Q50.64 2.09 50.21 2.09L50.21 2.09Q49.75 2.09 49.45 1.79Q49.15 1.49 49.15 1.03ZM62.52 5.69L62.52 5.69L62.76 4.58L64.01 4.58L64.01 14.59Q64.01 20.06 59.23 20.06L59.23 20.06Q56.98 20.06 55.25 18.55L55.25 18.55L55.80 17.66Q57.29 18.70 58.97 18.70L58.97 18.70Q60.74 18.70 61.58 17.71Q62.42 16.73 62.42 14.59L62.42 14.59L62.42 14.38Q61.25 15.77 59.21 15.77L59.21 15.77Q56.83 15.77 55.44 13.99L55.44 13.99Q54.24 12.46 54.24 10.18L54.24 10.18Q54.24 7.30 55.92 5.66L55.92 5.66Q57.31 4.30 59.35 4.30L59.35 4.30Q60.26 4.30 61.16 4.69Q62.06 5.09 62.52 5.69ZM62.42 12.58L62.42 12.58L62.42 7.37Q62.11 6.62 61.30 6.11Q60.48 5.59 59.57 5.59L59.57 5.59Q57.98 5.59 56.98 6.83Q55.97 8.06 55.97 10.01L55.97 10.01Q55.97 12.22 57.07 13.44L57.07 13.44Q58.03 14.45 59.47 14.45L59.47 14.45Q60.43 14.45 61.24 13.93Q62.04 13.42 62.42 12.58ZM76.92 8.98L76.92 15.48L75.34 15.48L75.34 9.10Q75.34 5.69 72.31 5.69L72.31 5.69Q71.50 5.69 70.63 6.11Q69.77 6.53 69.36 7.13L69.36 7.13L69.36 15.48L67.75 15.48L67.75 0.84L69.36 0L69.36 5.74Q70.85 4.30 72.82 4.30L72.82 4.30Q76.92 4.30 76.92 8.98L76.92 8.98ZM86.28 5.90L82.94 5.90L82.92 12.72Q82.92 14.47 84.34 14.47L84.34 14.47Q85.13 14.47 85.90 14.06L85.90 14.06L86.47 14.95Q85.30 15.77 84 15.77L84 15.77Q82.73 15.77 82.03 14.98Q81.34 14.18 81.34 12.77L81.34 12.77L81.34 5.90L79.68 5.90L79.68 4.58L81.36 4.58L81.36 2.21L82.94 1.39L82.94 4.58L86.28 4.58L86.28 5.90ZM101.59 6.53L98.93 15.48L97.20 15.48L93.60 4.58L95.33 4.58L98.06 13.61L100.68 4.58L102.53 4.58L105.02 13.61L107.76 4.58L109.49 4.58L105.86 15.48L104.14 15.48L101.59 6.53ZM119.47 8.86L119.47 15.48L118.27 15.48L118.03 14.30Q116.57 15.77 114.38 15.77L114.38 15.77Q112.73 15.77 111.74 14.84Q110.76 13.92 110.76 12.38L110.76 12.38Q110.76 8.64 116.23 8.64L116.23 8.64L117.89 8.64L117.89 8.50Q117.89 5.64 115.10 5.64L115.10 5.64Q113.52 5.64 112.06 6.70L112.06 6.70L111.53 5.81Q113.18 4.30 115.56 4.30L115.56 4.30Q117.46 4.30 118.46 5.47Q119.47 6.65 119.47 8.86L119.47 8.86ZM117.89 12.77L117.89 9.82L116.42 9.82Q112.49 9.82 112.49 12.24L112.49 12.24Q112.49 13.27 113.10 13.86Q113.71 14.45 114.82 14.45L114.82 14.45Q115.78 14.45 116.66 13.97Q117.55 13.49 117.89 12.77L117.89 12.77ZM130.18 4.58L131.90 4.58L127.15 17.14Q126.07 20.06 124.18 20.06L124.18 20.06Q122.98 20.06 121.78 19.20L121.78 19.20L122.30 18.34Q123.12 18.77 123.74 18.77L123.74 18.77Q124.94 18.77 125.83 16.54L125.83 16.54L126.26 15.48L125.86 15.48L121.66 4.58L123.36 4.58L126.82 13.82L130.18 4.58Z" transform="translate(0, 47)">
</path>
</svg>