<?xml version="1.0" standalone="no"?>
<svg xmlns="http://www.w3.org/2000/svg" viewBox="0 50 147 1" width="147" height="35">
<line x1="56.834" y1="41" x2="89.73400000000001" y2="41" stroke="#5e24c3" stroke-linecap="round">
</line>
<path fill="#5e24c3" fill-rule="nonzero" d="M6.60 5.90L3.26 5.90L3.24 12.72Q3.24 14.47 4.66 14.47L4.66 14.47Q5.45 14.47 6.22 14.06L6.22 14.06L6.79 14.95Q5.62 15.77 4.32 15.77L4.32 15.77Q3.05 15.77 2.35 14.98Q1.66 14.18 1.66 12.77L1.66 12.77L1.66 5.90L0 5.90L0 4.58L1.68 4.58L1.68 2.21L3.26 1.39L3.26 4.58L6.60 4.58L6.60 5.90ZM18.84 8.98L18.84 15.48L17.26 15.48L17.26 9.10Q17.26 5.69 14.23 5.69L14.23 5.69Q13.42 5.69 12.55 6.11Q11.69 6.53 11.28 7.13L11.28 7.13L11.28 15.48L9.67 15.48L9.67 0.84L11.28 0L11.28 5.74Q12.77 4.30 14.74 4.30L14.74 4.30Q18.84 4.30 18.84 8.98L18.84 8.98ZM31.32 10.06L31.32 10.58L23.54 10.58Q23.64 12.34 24.76 13.39Q25.87 14.45 27.65 14.45L27.65 14.45Q29.14 14.45 30.55 13.56L30.55 13.56L31.10 14.52Q29.52 15.77 27.29 15.77L27.29 15.77Q24.70 15.77 23.16 14.06L23.16 14.06Q21.74 12.53 21.74 10.08L21.74 10.08Q21.74 7.54 23.26 5.83L23.26 5.83Q24.62 4.30 26.64 4.30L26.64 4.30Q29.06 4.30 30.34 6.26L30.34 6.26Q31.32 7.80 31.32 10.06L31.32 10.06ZM23.52 9.29L23.52 9.29L29.66 9.29Q29.59 7.54 28.81 6.55Q28.03 5.57 26.66 5.57L26.66 5.57Q25.37 5.57 24.49 6.60Q23.62 7.63 23.52 9.29ZM46.58 6.53L43.92 15.48L42.19 15.48L38.59 4.58L40.32 4.58L43.06 13.61L45.67 4.58L47.52 4.58L50.02 13.61L52.75 4.58L54.48 4.58L50.86 15.48L49.13 15.48L46.58 6.53ZM63.82 5.52L63.82 5.52L62.50 6.43Q61.68 5.71 60.74 5.71L60.74 5.71Q59.38 5.71 58.32 7.13L58.32 7.13L58.32 15.48L56.71 15.48L56.71 4.58L58.08 4.58L58.22 5.74L58.27 5.74Q59.69 4.30 61.18 4.30L61.18 4.30Q62.93 4.30 63.82 5.52ZM75.29 10.06L75.29 10.06Q75.29 12.65 73.66 14.30L73.66 14.30Q72.19 15.77 70.06 15.77L70.06 15.77Q67.58 15.77 66.07 13.90L66.07 13.90Q64.80 12.31 64.80 10.06L64.80 10.06Q64.80 7.42 66.38 5.78L66.38 5.78Q67.82 4.30 70.06 4.30L70.06 4.30Q72.58 4.30 74.06 6.19L74.06 6.19Q75.29 7.78 75.29 10.06ZM66.53 10.06L66.53 10.06Q66.53 12.14 67.61 13.37L67.61 13.37Q68.57 14.45 70.03 14.45L70.03 14.45Q71.62 14.45 72.59 13.24Q73.56 12.02 73.56 10.06L73.56 10.06Q73.56 7.99 72.50 6.74L72.50 6.74Q71.54 5.59 70.06 5.59L70.06 5.59Q68.47 5.59 67.50 6.83Q66.53 8.06 66.53 10.06ZM87.48 8.98L87.48 15.48L85.90 15.48L85.90 9.10Q85.90 5.69 82.92 5.69L82.92 5.69Q82.06 5.69 81.22 6.10Q80.38 6.50 79.92 7.13L79.92 7.13L79.92 15.48L78.31 15.48L78.31 4.58L79.66 4.58L79.80 5.74L79.87 5.74Q81.29 4.30 83.42 4.30L83.42 4.30Q87.48 4.30 87.48 8.98L87.48 8.98ZM98.78 5.69L98.78 5.69L99.02 4.58L100.27 4.58L100.27 14.59Q100.27 20.06 95.50 20.06L95.50 20.06Q93.24 20.06 91.51 18.55L91.51 18.55L92.06 17.66Q93.55 18.70 95.23 18.70L95.23 18.70Q97.01 18.70 97.85 17.71Q98.69 16.73 98.69 14.59L98.69 14.59L98.69 14.38Q97.51 15.77 95.47 15.77L95.47 15.77Q93.10 15.77 91.70 13.99L91.70 13.99Q90.50 12.46 90.50 10.18L90.50 10.18Q90.50 7.30 92.18 5.66L92.18 5.66Q93.58 4.30 95.62 4.30L95.62 4.30Q96.53 4.30 97.43 4.69Q98.33 5.09 98.78 5.69ZM98.69 12.58L98.69 12.58L98.69 7.37Q98.38 6.62 97.56 6.11Q96.74 5.59 95.83 5.59L95.83 5.59Q94.25 5.59 93.24 6.83Q92.23 8.06 92.23 10.01L92.23 10.01Q92.23 12.22 93.34 13.44L93.34 13.44Q94.30 14.45 95.74 14.45L95.74 14.45Q96.70 14.45 97.50 13.93Q98.30 13.42 98.69 12.58ZM116.26 6.53L113.59 15.48L111.86 15.48L108.26 4.58L109.99 4.58L112.73 13.61L115.34 4.58L117.19 4.58L119.69 13.61L122.42 4.58L124.15 4.58L120.53 15.48L118.80 15.48L116.26 6.53ZM134.14 8.86L134.14 15.48L132.94 15.48L132.70 14.30Q131.23 15.77 129.05 15.77L129.05 15.77Q127.39 15.77 126.41 14.84Q125.42 13.92 125.42 12.38L125.42 12.38Q125.42 8.64 130.90 8.64L130.90 8.64L132.55 8.64L132.55 8.50Q132.55 5.64 129.77 5.64L129.77 5.64Q128.18 5.64 126.72 6.70L126.72 6.70L126.19 5.81Q127.85 4.30 130.22 4.30L130.22 4.30Q132.12 4.30 133.13 5.47Q134.14 6.65 134.14 8.86L134.14 8.86ZM132.55 12.77L132.55 9.82L131.09 9.82Q127.15 9.82 127.15 12.24L127.15 12.24Q127.15 13.27 127.76 13.86Q128.38 14.45 129.48 14.45L129.48 14.45Q130.44 14.45 131.33 13.97Q132.22 13.49 132.55 12.77L132.55 12.77ZM144.84 4.58L146.57 4.58L141.82 17.14Q140.74 20.06 138.84 20.06L138.84 20.06Q137.64 20.06 136.44 19.20L136.44 19.20L136.97 18.34Q137.78 18.77 138.41 18.77L138.41 18.77Q139.61 18.77 140.50 16.54L140.50 16.54L140.93 15.48L140.52 15.48L136.32 4.58L138.02 4.58L141.48 13.82L144.84 4.58Z" transform="translate(0, 47)">
</path>
</svg>