<?xml version="1.0" standalone="no"?>
<svg xmlns="http://www.w3.org/2000/svg" viewBox="0 0 132 68" width="132" height="68"><g fill="#8ba1ef" color="#8ba1ef" transform="translate(48.452 0) scale(0.35) "><g transform="translate(-247.64, -370.945)"><svg width="100.0" height="100.0" x="247.64" y="370.945" viewBox="247.64 370.945 100 100"><path d="M330.475,438.775v-43.071c-0.01-4.63-3.773-7.393-7.41-7.393c-0.004,0-0.007,0-0.012,0  c-1.865,0.002-3.717,0.722-5.076,1.974c-0.02,0.018-0.035,0.038-0.054,0.056v-8.135c-0.011-4.631-3.774-7.394-7.41-7.394  c-0.006,0-0.009,0-0.013,0c-1.865,0.002-3.717,0.723-5.075,1.974c-0.051,0.046-0.094,0.098-0.144,0.146  c-0.562-3.947-3.991-6.269-7.322-6.269c-0.003,0-0.007,0-0.012,0c-1.864,0.002-3.715,0.723-5.075,1.974  c-1.498,1.379-2.322,3.313-2.317,5.446v2.539c-1.406-1.321-3.291-2.043-5.149-2.043c-0.002,0-0.006,0-0.011,0  c-1.864,0.003-3.715,0.723-5.076,1.973c-1.497,1.38-2.322,3.314-2.317,5.445v23.725c-1.814-2.056-4.481-3.192-7.098-3.192  c-0.004,0-0.009,0-0.014,0c-2.387,0.005-2.492,0.007-2.539,0.007c-0.032,0-0.031,0-0.853,0c-0.627,0-1.132,0.504-1.132,1.132v31.233  h0.003c0.067,17.68,14.397,32.044,32.005,32.044c17.708,0,32.114-14.431,32.114-32.17H330.475L330.475,438.775z M298.375,468.681  c-16.401,0-29.746-13.416-29.746-29.909v-29.975c0.276-0.002,0.885-0.002,2.263-0.004c0.005,0,0.009,0,0.012,0  c3.436,0,7.088,2.48,7.097,7.079v18.5h1.132c5.758,0,11.241,1.667,15.896,4.68l0.009-0.019c0.141,0.062,0.296,0.1,0.458,0.1  c0.626,0,1.132-0.506,1.132-1.132c0-0.406-0.228-0.749-0.552-0.948l0.009-0.013c-4.671-2.979-10.101-4.71-15.819-4.911v-46.134  c-0.004-1.912,0.862-3.11,1.587-3.777c0.948-0.873,2.24-1.375,3.547-1.377c0.002,0,0.004,0,0.008,0c2.491,0,5.139,1.799,5.146,5.133  v35.522c0,0.626,0.506,1.132,1.132,1.132c0.626,0,1.131-0.506,1.131-1.132v-43.418c-0.004-1.911,0.861-3.108,1.587-3.777  c0.948-0.873,2.24-1.374,3.548-1.376c0.002,0,0.004,0,0.008,0c2.49,0,5.139,1.798,5.146,5.132v43.438  c0,0.626,0.506,1.132,1.132,1.132s1.131-0.506,1.131-1.132v-39.269c-0.003-1.911,0.862-3.109,1.587-3.777  c0.947-0.873,2.24-1.373,3.548-1.375c0.002,0,0.005,0,0.009,0c2.49,0,5.138,1.798,5.146,5.132v38.595v0.619h0.016  c-0.002,0.026-0.016,0.049-0.016,0.075c0,0.626,0.505,1.132,1.132,1.132c0.626,0,1.132-0.506,1.132-1.132  c0-0.026-0.015-0.049-0.017-0.075h0.017v-0.619v-25.076c-0.004-1.911,0.86-3.108,1.586-3.777c0.947-0.872,2.24-1.373,3.549-1.375  c0.002,0,0.004,0,0.007,0c2.491,0,5.14,1.798,5.147,5.132v43.067h0.015C328.226,455.265,314.835,468.681,298.375,468.681z"></path></svg></g></g><line x1="49.501999999999995" y1="41" x2="82.40199999999999" y2="41" stroke="#3052ce" stroke-linecap="round"></line><path fill="#3052ce" fill-rule="nonzero" d="M6.60 5.90L3.26 5.90L3.24 12.72Q3.24 14.47 4.66 14.47L4.66 14.47Q5.45 14.47 6.22 14.06L6.22 14.06L6.79 14.95Q5.62 15.77 4.32 15.77L4.32 15.77Q3.05 15.77 2.35 14.98Q1.66 14.18 1.66 12.77L1.66 12.77L1.66 5.90L0 5.90L0 4.58L1.68 4.58L1.68 2.21L3.26 1.39L3.26 4.58L6.60 4.58L6.60 5.90ZM18.84 8.98L18.84 15.48L17.26 15.48L17.26 9.10Q17.26 5.69 14.23 5.69L14.23 5.69Q13.42 5.69 12.55 6.11Q11.69 6.53 11.28 7.13L11.28 7.13L11.28 15.48L9.67 15.48L9.67 0.84L11.28 0L11.28 5.74Q12.77 4.30 14.74 4.30L14.74 4.30Q18.84 4.30 18.84 8.98L18.84 8.98ZM31.32 10.06L31.32 10.58L23.54 10.58Q23.64 12.34 24.76 13.39Q25.87 14.45 27.65 14.45L27.65 14.45Q29.14 14.45 30.55 13.56L30.55 13.56L31.10 14.52Q29.52 15.77 27.29 15.77L27.29 15.77Q24.70 15.77 23.16 14.06L23.16 14.06Q21.74 12.53 21.74 10.08L21.74 10.08Q21.74 7.54 23.26 5.83L23.26 5.83Q24.62 4.30 26.64 4.30L26.64 4.30Q29.06 4.30 30.34 6.26L30.34 6.26Q31.32 7.80 31.32 10.06L31.32 10.06ZM23.52 9.29L23.52 9.29L29.66 9.29Q29.59 7.54 28.81 6.55Q28.03 5.57 26.66 5.57L26.66 5.57Q25.37 5.57 24.49 6.60Q23.62 7.63 23.52 9.29ZM47.21 5.52L47.21 5.52L45.89 6.43Q45.07 5.71 44.14 5.71L44.14 5.71Q42.77 5.71 41.71 7.13L41.71 7.13L41.71 15.48L40.10 15.48L40.10 4.58L41.47 4.58L41.62 5.74L41.66 5.74Q43.08 4.30 44.57 4.30L44.57 4.30Q46.32 4.30 47.21 5.52ZM49.39 4.58L50.98 4.58L50.98 15.48L49.39 15.48L49.39 4.58ZM49.15 1.03L49.15 1.03Q49.15 0.62 49.46 0.31Q49.78 0 50.21 0L50.21 0Q50.64 0 50.95 0.31Q51.26 0.62 51.26 1.03L51.26 1.03Q51.26 1.49 50.95 1.79Q50.64 2.09 50.21 2.09L50.21 2.09Q49.75 2.09 49.45 1.79Q49.15 1.49 49.15 1.03ZM62.52 5.69L62.52 5.69L62.76 4.58L64.01 4.58L64.01 14.59Q64.01 20.06 59.23 20.06L59.23 20.06Q56.98 20.06 55.25 18.55L55.25 18.55L55.80 17.66Q57.29 18.70 58.97 18.70L58.97 18.70Q60.74 18.70 61.58 17.71Q62.42 16.73 62.42 14.59L62.42 14.59L62.42 14.38Q61.25 15.77 59.21 15.77L59.21 15.77Q56.83 15.77 55.44 13.99L55.44 13.99Q54.24 12.46 54.24 10.18L54.24 10.18Q54.24 7.30 55.92 5.66L55.92 5.66Q57.31 4.30 59.35 4.30L59.35 4.30Q60.26 4.30 61.16 4.69Q62.06 5.09 62.52 5.69ZM62.42 12.58L62.42 12.58L62.42 7.37Q62.11 6.62 61.30 6.11Q60.48 5.59 59.57 5.59L59.57 5.59Q57.98 5.59 56.98 6.83Q55.97 8.06 55.97 10.01L55.97 10.01Q55.97 12.22 57.07 13.44L57.07 13.44Q58.03 14.45 59.47 14.45L59.47 14.45Q60.43 14.45 61.24 13.93Q62.04 13.42 62.42 12.58ZM76.92 8.98L76.92 15.48L75.34 15.48L75.34 9.10Q75.34 5.69 72.31 5.69L72.31 5.69Q71.50 5.69 70.63 6.11Q69.77 6.53 69.36 7.13L69.36 7.13L69.36 15.48L67.75 15.48L67.75 0.84L69.36 0L69.36 5.74Q70.85 4.30 72.82 4.30L72.82 4.30Q76.92 4.30 76.92 8.98L76.92 8.98ZM86.28 5.90L82.94 5.90L82.92 12.72Q82.92 14.47 84.34 14.47L84.34 14.47Q85.13 14.47 85.90 14.06L85.90 14.06L86.47 14.95Q85.30 15.77 84 15.77L84 15.77Q82.73 15.77 82.03 14.98Q81.34 14.18 81.34 12.77L81.34 12.77L81.34 5.90L79.68 5.90L79.68 4.58L81.36 4.58L81.36 2.21L82.94 1.39L82.94 4.58L86.28 4.58L86.28 5.90ZM101.59 6.53L98.93 15.48L97.20 15.48L93.60 4.58L95.33 4.58L98.06 13.61L100.68 4.58L102.53 4.58L105.02 13.61L107.76 4.58L109.49 4.58L105.86 15.48L104.14 15.48L101.59 6.53ZM119.47 8.86L119.47 15.48L118.27 15.48L118.03 14.30Q116.57 15.77 114.38 15.77L114.38 15.77Q112.73 15.77 111.74 14.84Q110.76 13.92 110.76 12.38L110.76 12.38Q110.76 8.64 116.23 8.64L116.23 8.64L117.89 8.64L117.89 8.50Q117.89 5.64 115.10 5.64L115.10 5.64Q113.52 5.64 112.06 6.70L112.06 6.70L111.53 5.81Q113.18 4.30 115.56 4.30L115.56 4.30Q117.46 4.30 118.46 5.47Q119.47 6.65 119.47 8.86L119.47 8.86ZM117.89 12.77L117.89 9.82L116.42 9.82Q112.49 9.82 112.49 12.24L112.49 12.24Q112.49 13.27 113.10 13.86Q113.71 14.45 114.82 14.45L114.82 14.45Q115.78 14.45 116.66 13.97Q117.55 13.49 117.89 12.77L117.89 12.77ZM130.18 4.58L131.90 4.58L127.15 17.14Q126.07 20.06 124.18 20.06L124.18 20.06Q122.98 20.06 121.78 19.20L121.78 19.20L122.30 18.34Q123.12 18.77 123.74 18.77L123.74 18.77Q124.94 18.77 125.83 16.54L125.83 16.54L126.26 15.48L125.86 15.48L121.66 4.58L123.36 4.58L126.82 13.82L130.18 4.58Z" transform="translate(0, 47)"></path></svg>