<svg width="27" height="41" viewBox="0 0 27 41" fill="none" xmlns="http://www.w3.org/2000/svg">
<path d="M12.35 0.795401C11.7355 1.45085 11.3668 3.33526 10.6704 9.27526C10.1378 13.4537 9.64625 17.1406 9.48239 17.4684C8.94984 18.9022 8.13053 17.2635 5.79549 10.1765C3.33756 2.67981 3.33756 2.63885 2.06763 2.51595C-0.431266 2.27016 -0.472231 2.84368 1.33025 11.7332C2.19053 16.1165 3.00984 19.8853 3.13273 20.0902C3.2966 20.295 5.4268 20.0902 8.0486 19.6395C10.6294 19.1889 12.8006 18.8202 12.8825 18.8202C12.9235 18.8202 12.9645 17.1406 12.9645 15.1333V11.4055L14.3573 10.6271C15.7091 9.80781 15.7091 9.76685 15.9959 5.87512C16.2007 2.63885 16.1598 1.73761 15.6272 0.959261C14.8489 -0.269703 13.3741 -0.310669 12.35 0.795401Z" fill="white"/>
<path d="M15.2585 12.1019C14.3163 13.0441 14.3163 18.8202 15.2585 18.8202C15.6272 18.8202 16.5284 19.4347 17.3068 20.213L18.6996 21.6059V17.1816C18.6996 12.4706 18.3309 11.4464 16.6513 11.4464C16.2417 11.4464 15.5862 11.7332 15.2585 12.1019Z" fill="white"/>
<path d="M20.9937 13.7405C20.0515 14.6417 20.0515 22.1794 20.9937 23.0806C21.813 23.8999 22.96 23.8999 23.7793 23.0806C24.2709 22.589 24.4348 21.5239 24.4348 18.4105C24.4348 14.1501 24.0251 13.085 22.3865 13.085C21.9768 13.085 21.3214 13.3718 20.9937 13.7405Z" fill="white"/>
<path d="M8.70403 21.3191C3.21465 22.2204 1.617 22.9168 0.551894 24.965C-0.349347 26.6856 -0.185485 28.4881 1.33024 33.4859C3.50141 40.6139 3.993 40.9006 13.497 40.9416C21.813 40.9416 23.6155 40.2861 25.2951 36.6402C25.9095 35.2883 26.0734 33.9365 26.0734 28.9797V22.9987L24.8854 24.1867C23.2468 25.7844 21.5262 25.7844 19.8876 24.1867C18.9044 23.1626 18.6996 23.1216 18.6996 23.7361C18.6996 25.2518 16.7333 26.9314 14.3982 27.4639C13.1693 27.7507 12.1451 28.0375 12.1451 28.1194C12.1451 28.2013 12.6777 28.9797 13.3331 29.799C14.7669 31.6424 15.7091 34.2642 15.0946 34.8787C14.4802 35.4932 13.9066 34.9606 13.5789 33.6088C13.2922 32.2569 11.7764 30.0448 10.5065 29.1845C9.64624 28.57 9.60527 28.57 10.0969 29.4303C10.5884 30.4135 10.3836 31.5195 9.72817 31.5195C9.23658 31.5195 7.63893 28.57 7.63893 27.7097C7.63893 27.341 8.94982 26.8495 11.6945 26.235C14.1115 25.7024 15.9959 25.047 16.4055 24.5964C17.8393 22.9987 16.6923 20.4179 14.5621 20.4998C14.0295 20.5408 11.3668 20.9095 8.70403 21.3191Z" fill="white"/>
</svg>
